<?xml version="1.0" encoding="utf-8"?>
<!-- Generator: Adobe Illustrator 24.0.2, SVG Export Plug-In . SVG Version: 6.00 Build 0)  -->
<svg version="1.1" id="Capa_1" xmlns="http://www.w3.org/2000/svg" xmlns:xlink="http://www.w3.org/1999/xlink" x="0px" y="0px"
	 viewBox="0 0 1000 354" style="enable-background:new 0 0 1000 354;" xml:space="preserve">
<style type="text/css">
	.st0{fill:#7C6BE9;}
	.st1{fill:#4A4189;}
	.st2{fill:#FEFEFE;}
</style>
<g>
	<path class="st0" d="M649.4,224c-3.7,0.9-7.5,1.5-11.3,0.4c-8-2.4-11.6-8.4-13.1-16.1c-0.2-0.9-0.3-1.7-0.5-3
		c-1.6,2-2.9,3.7-4.3,5.4c-4,4.7-8.7,8.5-14.8,10c-10.9,2.8-21.5-2.8-26.4-13.6c-1.4-3.1-2.3-6.3-3.1-10c-1.1,1.9-2,3.5-3,5
		c-6.2,10-14.4,17.4-26.2,20.2c-8.6,2-17.1,1.4-25.1-1.9c-8.1-3.3-12.2-10.2-14.5-18.3c-2.2-7.7-2.4-15.6-1.1-23.5
		c0.1-0.9,0.2-1.7,0.3-2.8c-1.2,0.4-1.7,1.4-2.4,2c-5.7,5.3-11.2,5.6-17.4,1c-1.5-1.1-1.7-1.7-0.2-2.9c3.9-3.3,6.4-7.3,6.1-12.7
		c-0.1-1.9-0.4-3.8-2.3-4.7c-1.8-0.9-3.4,0-4.8,1.2c-5.6,4.5-9.8,10.2-13.7,16.2c-8.8,13.6-15.2,28.2-18,44.2
		c-0.2,1-0.6,1.5-1.5,1.9c-6,2.3-14.3-0.6-17.5-6.3c-3.6-6.5-4.9-13.6-5.1-20.9c-0.4-18.8,4.6-36.4,11.4-53.7
		c1.9-4.8,5.6-7.2,10.6-7.8c8.6-1.1,16.7,0.3,24.4,4.2c1.9,1,1.6,1.7,0.5,3.1c-8.5,10.7-13.5,23.1-17.5,35.9c-0.1,0.3,0,0.6,0,0.9
		c-0.4,0.1-0.4,0.3-0.4,0.6c0,0.1,0.1,0.1,0.2,0.1c0.1-0.2,0.1-0.5,0.2-0.7c3-5.2,5.9-10.4,9-15.4c5.4-8.8,11.5-17.1,19.5-23.8
		c4.8-4.1,10.1-7.4,16.8-7.2c3.8,0.1,6.7,1.8,8.5,5.3c1.6,3.2,2.3,6.6,2.4,10.2c0.1,1.8,0,3.6,0,5.8c2.1-2.7,3.8-5.1,5.8-7.4
		c5.3-6.1,11.7-10.7,19.8-12.2c8.8-1.6,17.2-0.9,23.7,6.2c6.7,7.4,8.6,16.2,6.2,25.8c-1.8,7-8.9,10.5-16.8,8.8
		c-0.6-0.1-1.2-0.3-1.8-0.5c-0.2-0.9,0.7-1,1.1-1.4c5.2-4.4,6.9-10.2,6.2-16.8c-0.2-2.2-2.3-3.3-4.7-2.6c-2.8,0.8-5,2.7-6.6,4.9
		c-10.1,13.7-15.2,28.8-12.5,46c0.8,5.1,7.5,9.4,13,8.6c6.2-1,11.3-3.8,15.4-8.5c4.4-5.1,8.1-10.7,11.3-16.6c1.4-2.7,1-5.8,1.4-8.7
		c1.8-13.1,6.8-24.7,15.8-34.4c8.2-8.9,18.4-13,30.6-11.1c6.7,1,11.4,4.8,13.6,11.3c0.2,0.5,0.3,1.1,0.5,1.6
		c0.1,0.4,0.2,0.8,0.4,1.4c1-0.7,1.2-1.7,1.5-2.6c2.5-7.2,8.1-9.9,15.2-10.3c6.8-0.3,13.3,1,19.5,4c0.8,0.4,1.6,0.6,2.4,1
		c0.2,1-0.4,1.7-0.9,2.5c-1,1.7-2.4,3.3-2.9,5.3c-0.5,0.7-1,1.4-1.4,2.2c-5,9.6-9.2,19.4-13,29.5c-3.2,8.8-6.4,17.7-7.5,27.1
		c-0.2,1.9-0.5,3.9,1.2,5.1c1.8,1.3,3.7,0.1,5.3-0.9c2.7-1.7,4.8-4,6.7-6.4c6.2-7.8,11-16.6,15.9-25.3c0.4-0.7,0.6-1.8,1.6-1.4
		c0.9,0.3,0.6,1.3,0.5,2.1c-0.7,5.7-2.4,11.2-4.8,16.4c-3.6,7.7-8.7,14.5-14.5,20.6C657.8,219,653.8,221.8,649.4,224z M629.8,161.9
		c-0.1-2.6,0.1-4.5-0.6-6.4c-1.1-3.2-3.5-4.2-6.4-2.7c-2.2,1.1-3.8,2.8-5.3,4.8c-6.3,8.6-9.6,18.5-12.3,28.6
		c-1.7,6.7-2.7,13.4-2,20.3c0.5,4.3,3.6,5.9,7.2,3.7c1.1-0.7,2-1.5,2.9-2.5c3.7-4.5,6.2-9.6,8.4-14.9
		C626.2,182.7,629.3,172.3,629.8,161.9z"/>
	<path class="st1" d="M282.9,235.9c-12.8-0.5-25.7-0.9-38.5-1.5c-1.5-0.1-2.1,0.8-2.8,1.7c-11.6,16.4-23.3,32.8-34.9,49.2
		c-2.7,3.8-5.5,7.6-8.2,11.5c-0.9,1.3-1.8,1.9-3.5,1.9c-17.7-0.1-35.5,0-53.2-0.1c-0.7,0-1.6,0.4-2-0.2c-0.5-0.8,0.5-1.4,0.9-2
		c16.6-24.4,33.2-48.8,49.7-73.3c0.6-0.9,1.9-1.8,1.4-2.8c-0.4-0.8-1.9-0.2-2.9-0.4c-3.4-0.6-5.4,0.9-7.4,3.7
		c-17.2,24.5-34.6,48.8-51.9,73.2c-0.8,1.1-1.5,1.8-3,1.8c-18.2-0.1-36.5,0-54.7,0c-0.4,0-0.7,0-1.6-0.1c3.2-4.7,6.2-9.2,9.2-13.7
		c20.2-29.8,40.4-59.5,60.7-89.3c0.8-1.1,0.8-1.8,0-2.9c-22.6-33.2-45.1-66.4-67.7-99.6c-0.7-1-1.3-2-2-3c0.7-0.5,1.5-0.3,2.1-0.3
		c17.8,0,35.7,0,53.5,0c1.6,0,2.6,0.5,3.5,1.8c17.7,25,35.5,50,53.2,75c1,1.4,2,2.1,3.7,1.9c1.8-0.2,3.7,0,6,0
		c-17.8-26.2-35.4-52.2-53.1-78.1c0.7-0.8,1.4-0.5,2.1-0.5c17.9,0,35.8,0,53.7-0.1c1.6,0,2.4,0.5,3.2,1.8
		c14.1,21.7,28.2,43.3,42.3,65c1,1.5,2,2.1,3.8,2.1c23.8,0,47.6,0.1,71.5,0.1c12.3,0,24.6,0.1,36.9,0.1c-1.3,3-3.2,5.5-5.2,8.1
		c-10.6-0.1-21.3-0.1-31.9-0.2c-23.7-0.1-47.3-0.1-71-0.2c-1.4,0-2.7-0.2-4.1,0c-2.5,0.4-3.8-0.8-5.1-2.8
		c-13.8-21.3-27.7-42.5-41.5-63.8c-1-1.6-2.1-2.2-4-2.2c-11.1,0.1-22.2,0-33.3,0.1c-0.7,0-1.6-0.4-2,0.3c-0.4,0.7,0.5,1.3,0.8,1.8
		c14.6,21.6,29.3,43.2,44,64.8c2.6,3.8,5.1,7.6,8,11.8c-1.2,0-2,0-2.8,0c-7.4,0-14.7-0.1-22.1,0.1c-2.2,0-3.4-0.7-4.6-2.4
		c-17.6-24.8-35.2-49.6-52.8-74.4c-1.1-1.5-2.2-2-3.9-2c-11.1,0.1-22.2,0-33.3,0.1c-0.8,0-1.6-0.2-2.3,0.3c0,0.9,0.7,1.4,1.1,2.1
		c20.7,30.6,41.5,61.1,62.3,91.7c0.9,1.3,1.7,2.3,0.4,4.2c-19.7,28.9-39.3,57.8-59,86.7c-1.7,2.5-3.4,5.1-5.3,7.9c1.3,0,2,0,2.8,0
		c10.8,0,21.6-0.1,32.4,0.1c2.6,0,4-0.8,5.4-2.8c17.5-24.8,35.1-49.5,52.6-74.2c0.9-1.2,1.8-1.7,3.3-1.7c7.7,0.1,15.3,0,23,0.1
		c0.7,0,1.6-0.4,2.3,0.5c-17.6,25.9-35.2,51.9-53,78.1c12.5,0,24.5,0,36.5,0c1.6,0,2.6-0.5,3.5-1.8c14.4-20.3,28.8-40.6,43.2-60.9
		c1-1.3,1.9-1.8,3.5-1.8c9.6,0.4,19.3,0.8,29,1.2C273.6,231.2,278,233.9,282.9,235.9z"/>
	<path class="st0" d="M282.9,235.9c-4.9-2-9.3-4.7-12.9-8.6c1.5-0.7,3,0.1,4.4,0.1c11.1,0,21.2-3.5,30.2-9.8
		c11.9-8.3,21.3-18.9,29.7-30.5c4.7-6.5,9.4-13,13.5-20c2-2.5,3.9-5.1,5.2-8.1c3.3-4.1,5.8-8.8,8.5-13.3c9.5-15.8,19-31.6,29.5-46.8
		c6.8-9.9,15.6-17,27.7-19.3c9.7-1.8,18.9-0.5,27.7,3.8c1.4,0.7,1.8,1.1,0.5,2.5c-5,5.4-8.2,12-11.1,18.6
		c-10.2,22.8-17.4,46.6-20.9,71.3c-1.4,10.1-2.1,20.3-0.1,30.5c1,5.2,2.9,10,7,13.6c1.7,1.5,0.8,2-0.6,2.6c-3.8,1.4-7.7,2-11.7,2.3
		c-5.3,0.4-10.7,0.2-16-0.9c-9.1-1.9-13.3-8-14.7-16.7c-0.6-4-1.4-8-3.2-11.7c-3.7-7.7-10.3-11.2-18.3-12.7
		c-1.5-0.3-2.1,0.5-2.8,1.6c-7.4,11.3-15.1,22.4-23.6,32.8c-3.5,4.3-7.3,8.5-11.8,11.9c-10.1,7.6-21.4,10-33.7,7.3
		C284.6,236.2,283.7,236.1,282.9,235.9z M408,102.2c-0.8,0.2-1.3,0.9-1.8,1.5c-3,3.3-5.6,7-8,10.8c-13.1,20.9-26.1,41.8-39.1,62.8
		c-0.3,0.5-0.9,0.9-0.6,1.7c0.9,0.2,1.7-0.1,2.6-0.3c6.1-1,12.2-1.6,18.1,1.2c1.7,0.8,1.4-0.6,1.6-1.4c3.4-15.2,8.2-30,13.7-44.5
		c4.1-10.7,8.7-21.2,13.8-31.5c0-0.2,0.1-0.3,0.1-0.5C408.3,102.1,408.2,102.2,408,102.2z"/>
	<path class="st1" d="M649.4,224c4.4-2.2,8.3-5,12.1-8.1c35.6-0.5,71.1-0.9,106.9-1.4c-4.8,10.8-9.5,21.3-14.2,31.8
		c-4,8.9-8,17.9-11.9,26.9c-2.3,5.4-2,10.6,1.9,15.2c2.4,2.8,4.7,3,7.8,1.1c3.7-2.3,7.5-4.6,11.2-6.9
		c51.1-31.5,102.1-63.1,153.2-94.6c2-1.2,3.4-2.9,4.3-5c2.9-6.7,0.7-13.8-5.5-17.6C861.2,131.9,807.1,98.5,752.9,65
		c-4.7-2.9-8-2-10.4,3c-2.3,4.6-1.8,9.2,0.2,13.8c9.5,21.9,18.8,43.9,28.2,65.9c0.3,0.6,0.8,1.2,0.5,1.9c-1.7,0-3.3,0-4.9,0
		c-19.5-0.6-38.9-1.2-58.4-1.7c-12.2-0.4-24.4-0.7-36.6-1.1c0.6-2,1.9-3.5,2.9-5.3c0.5-0.8,1.1-1.5,0.9-2.5
		c14.8,0.4,29.5,0.8,44.3,1.2c13.1,0.4,26.2,0.7,39.3,1.1c0.2-1.2-0.5-2-0.8-2.9c-7.7-18-15.5-36-23.1-54.1c-3.4-8-3-15.8,2.2-22.9
		c4.9-6.8,12.3-8.1,19.4-3.7c40.7,25.2,81.5,50.3,122.2,75.5c13.8,8.6,27.5,17.4,41.6,25.6c12.9,7.5,12.3,28.9,0,36.3
		c-54.7,33.4-109.1,67.2-163.6,100.9c-7.7,4.8-15.6,3-20.4-4.7c-4.4-7-4.6-14.5-1.2-22c6.5-14.7,13.1-29.4,19.7-44.1
		c1.1-2.5,1.1-2.6-1.6-2.6c-26.8,0.3-53.5,0.6-80.3,1C665.1,223.7,657.3,223.9,649.4,224z"/>
	<path class="st2" d="M458.5,177.6c-0.1,0.2-0.1,0.5-0.2,0.7c-0.1,0-0.1-0.1-0.2-0.1C458.1,177.9,458.1,177.6,458.5,177.6
		C458.5,177.6,458.5,177.6,458.5,177.6z"/>
	<path class="st2" d="M408,102.2c0.1-0.1,0.3-0.1,0.4-0.2c0,0.2-0.1,0.3-0.1,0.5C408.2,102.4,408.1,102.3,408,102.2z"/>
</g>
</svg>
